<?xml version="1.0" encoding="utf-8"?>
<!-- Generator: Adobe Illustrator 21.0.0, SVG Export Plug-In . SVG Version: 6.00 Build 0)  -->
<svg version="1.1" id="Layer_1" xmlns="http://www.w3.org/2000/svg" xmlns:xlink="http://www.w3.org/1999/xlink" x="0px" y="0px"
	 width="3000px" height="2000px" viewBox="0 0 3000 2000" style="enable-background:new 0 0 3000 2000;" xml:space="preserve">
<style type="text/css">
	.st0{fill-rule:evenodd;clip-rule:evenodd;fill:#FDCFD1;}
	.st1{fill-rule:evenodd;clip-rule:evenodd;fill:#FFDBDD;}
	.st2{fill-rule:evenodd;clip-rule:evenodd;fill:#FFE5E6;}
	.st3{fill-rule:evenodd;clip-rule:evenodd;fill:#FFF0F1;}
	.st4{fill-rule:evenodd;clip-rule:evenodd;fill:#FFFFFF;}
	.st5{fill-rule:evenodd;clip-rule:evenodd;fill:#653B13;}
	.st6{fill-rule:evenodd;clip-rule:evenodd;fill:#93EBDF;}
	.st7{fill-rule:evenodd;clip-rule:evenodd;fill:#86D1C7;}
	.st8{fill-rule:evenodd;clip-rule:evenodd;fill:#F0BBBE;}
	.st9{fill-rule:evenodd;clip-rule:evenodd;fill:#FFE8E9;}
	.st10{fill-rule:evenodd;clip-rule:evenodd;fill:#D29965;}
	.st11{fill-rule:evenodd;clip-rule:evenodd;fill:#FEB67B;}
	.st12{fill-rule:evenodd;clip-rule:evenodd;fill:#EB5257;}
</style>
<g>
	<g>
		<rect x="0.5" y="0.5" class="st0" width="3000" height="1998.4"/>
		<g>
			<path class="st1" d="M27.3,859.4c-10.5,13.8-19.4,27.9-26.8,42.2v191.9c6.7,12.3,14.8,24.5,24.3,36.3l129.9,161.8
				c38.9,48.4,78.5,138.9,77.2,201.1l-5.7,258.8c-2.4,109.2,52.9,191.8,157,220.2l105.7,28.8h2047.9l73.1-22
				c104.6-31.4,166.2-109.5,161.1-217.3l-9.9-207.2c-3-62,18.2-158.5,55.9-208l156.9-206c10.5-13.8,19.4-27.9,26.8-42.2V906
				c-6.7-12.3-14.8-24.5-24.3-36.3l-129.9-161.8c-38.9-48.4-78.5-138.9-77.2-201.1l5.7-258.8c2.4-109.2-52.9-191.8-157-220.2
				l-100-27.3H459.1l-67.9,20.4C286.5,52.3,224.9,130.4,230.1,238.2l9.9,207.2c3,62-18.2,158.5-55.9,208L27.3,859.4z"/>
			<path class="st2" d="M332.6,888.5c-52.5,68.9-55.6,147.6-2,214.4l103,128.3c30.8,38.4,62.3,110.1,61.2,159.4l-4.6,205.1
				c-1.9,86.5,41.9,152.1,124.5,174.6l158.8,43.3c47.5,13,115.2,52.5,143.3,93.1l65.1,93.9h1030.2l38.3-58.4
				c27-41.1,85.6-93.2,132.8-107.4l196.7-59.1c83-24.9,131.8-86.8,127.7-172.3l-7.9-164.3c-2.4-49.1,14.4-125.7,44.3-164.9
				l124.4-163.3c52.5-68.9,55.6-147.6,2-214.4l-103-128.3c-30.8-38.4-62.3-110.1-61.2-159.4l4.6-205.1
				c1.9-86.5-41.9-152.1-124.5-174.6l-158.8-43.3c-47.5-13-115.2-52.5-143.3-93.1l-64.1-92.4H987.9l-37.3,56.8
				c-27,41.1-85.6,93.2-132.8,107.4l-196.7,59.1c-83,24.9-131.8,86.8-127.7,172.3l7.9,164.3c2.4,49.1-14.4,125.7-44.3,164.9
				L332.6,888.5z"/>
			<path class="st3" d="M722.4,925.6c-34.9,45.9-37,98.4-1.3,142.8l68.6,85.5c20.5,25.6,41.5,73.4,40.8,106.2l-3,136.7
				c-1.3,57.6,27.9,101.3,82.9,116.3l105.8,28.8c31.6,8.6,76.7,35,95.5,62l77.9,112.4c32.9,47.4,82.2,65.6,135.5,45.4l102.5-38.8
				c30.7-11.6,82.7-16.7,113.7-5.9l129.1,45.1c54.5,19,105.1,4.8,136.3-42.9l60.1-91.6c18-27.4,57-62.1,88.5-71.6l131-39.3
				c55.3-16.6,87.8-57.8,85.1-114.8l-5.2-109.4c-1.6-32.7,9.6-83.7,29.5-109.9l82.9-108.8c34.9-45.9,37-98.4,1.3-142.8l-68.6-85.5
				c-20.5-25.6-41.5-73.4-40.8-106.2l3-136.7c1.3-57.6-27.9-101.3-82.9-116.3l-105.8-28.8c-31.6-8.6-76.7-35-95.5-62l-77.9-112.4
				c-32.9-47.4-82.2-65.6-135.5-45.4l-102.5,38.8c-30.7,11.6-82.7,16.7-113.7,5.9l-129.1-45.1c-54.5-19-105.1-4.8-136.3,42.9
				l-60.1,91.6c-18,27.4-57,62.1-88.5,71.6l-131,39.3c-55.3,16.6-87.8,57.8-85.1,114.8l5.2,109.4c1.6,32.7-9.6,83.7-29.5,109.9
				L722.4,925.6z"/>
		</g>
	</g>
	<g>
		<g>
			<path class="st4" d="M964.4,1416.3c123.5,153.3,312.8,251.5,525.2,251.5c212.3,0,401.7-98.2,525.2-251.5h327.2
				c0-73.9,60.5-134.3,134.4-134.3V744.8c-73.9,0-134.4-60.4-134.4-134.3H2043c-121.7-174.8-324.2-289.3-553.4-289.3
				c-229.3,0-431.7,114.4-553.4,289.3H637.2c0,73.9-60.5,134.3-134.4,134.3V1282c73.9,0,134.4,60.4,134.4,134.3H964.4z"/>
			<path class="st5" d="M2047.9,601.1c-62.5-88.4-145.6-161.3-242.2-211.9c-94.6-49.4-202.1-77.4-316.1-77.4
				c-114,0-221.5,28-316.1,77.4c-96.7,50.5-179.7,123.5-242.2,211.9H627.8v9.4c0,34.3-14.1,65.5-36.7,88.2
				c-22.7,22.6-53.9,36.7-88.2,36.7h-9.4v556h9.4c34.4,0,65.6,14.1,88.2,36.7c22.7,22.6,36.7,53.9,36.7,88.2v9.4h332.2
				c63.3,77.6,143.4,141,234.8,184.8c89.3,42.8,189.3,66.7,294.8,66.7c105.5,0,205.5-24,294.8-66.7
				c91.4-43.8,171.5-107.2,234.8-184.8h332.2v-9.4c0-34.3,14.1-65.5,36.7-88.2c22.7-22.6,53.9-36.7,88.2-36.7h9.4v-556h-9.4
				c-34.4,0-65.6-14.1-88.2-36.7c-22.7-22.6-36.7-53.9-36.7-88.2v-9.4H2047.9z M2374.7,712.1c24,24,56.3,39.6,92.2,41.9v518.9
				c-35.8,2.3-68.2,17.9-92.2,41.9c-24,24-39.6,56.3-41.9,92.1h-322.6l-2.8,3.5c-62.1,77.1-141,140-231.1,183.2
				c-86.7,41.5-184,64.8-286.7,64.8c-102.7,0-200-23.3-286.7-64.8c-90.1-43.2-169.1-106.1-231.1-183.2l-2.8-3.5H646.3
				c-2.3-35.8-18-68.1-41.9-92.1c-24-24-56.3-39.6-92.2-41.9V754c35.8-2.3,68.2-17.9,92.2-41.9c24-24,39.6-56.3,41.9-92.1H941
				l2.8-4.1c61.1-87.8,142.9-160.2,238.3-210c91.9-48,196.4-75.2,307.4-75.2c111,0,215.5,27.2,307.4,75.2
				c95.4,49.8,177.2,122.2,238.3,210l2.8,4.1h294.7C2335.1,655.8,2350.7,688.1,2374.7,712.1z"/>
		</g>
		<g>
			<path class="st6" d="M2285.8,1348.4c20.4-56.9,65.7-102.2,122.6-122.5v-425c-56.9-20.4-102.2-65.6-122.6-122.5H693.4
				c-20.4,56.9-65.7,102.1-122.6,122.5v425c56.9,20.4,102.2,65.6,122.6,122.5H2285.8z"/>
			<g>
				<path class="st7" d="M2285.8,678.4H693.4c-2,5.5-4.2,10.9-6.6,16.2h1605.7C2290,689.3,2287.7,683.9,2285.8,678.4z"/>
				<path class="st7" d="M2408.4,800.9c-39.3-14.1-73-40-96.9-73.4H667.6c-23.8,33.4-57.6,59.3-96.9,73.4v4.5h1837.7V800.9z"/>
				<rect x="570.7" y="838.4" class="st7" width="1837.7" height="77.9"/>
				<rect x="570.7" y="949.3" class="st7" width="1837.7" height="77.9"/>
				<rect x="570.7" y="1060.1" class="st7" width="1837.7" height="77.9"/>
				<path class="st7" d="M2408.4,1225.9V1171H570.7v54.9c16.1,5.8,31.3,13.5,45.3,23h1747.2
					C2377.1,1239.4,2392.3,1231.7,2408.4,1225.9z"/>
				<path class="st7" d="M2325.5,1281.9H653.7c17.2,19.3,30.8,41.8,39.7,66.6h1592.4C2294.6,1323.7,2308.2,1301.1,2325.5,1281.9z"/>
			</g>
			<path class="st5" d="M684.5,1351.6l2.2,6.3h1605.6l2.2-6.3c9.7-27.1,25.4-51.4,45.4-71.5c20.1-20,44.4-35.7,71.5-45.4l6.3-2.2
				V794.3l-6.3-2.2c-27.1-9.7-51.5-25.4-71.5-45.4c-20.1-20-35.7-44.4-45.4-71.5l-2.2-6.3H686.8l-2.2,6.3
				c-9.7,27.1-25.4,51.4-45.4,71.5c-20.1,20-44.4,35.7-71.5,45.4l-6.3,2.2v438.1l6.3,2.2c27.1,9.7,51.5,25.4,71.5,45.4
				C659.1,1300.2,674.8,1324.5,684.5,1351.6z M580.2,807.4c27.3-10.8,51.9-27,72.3-47.4c20.4-20.4,36.6-44.9,47.4-72.2h1579.4
				c10.8,27.3,27.1,51.8,47.4,72.2c20.4,20.4,44.9,36.6,72.3,47.4v412c-27.3,10.8-51.9,27-72.3,47.4c-20.4,20.4-36.6,44.9-47.4,72.2
				H699.8c-10.8-27.3-27.1-51.8-47.4-72.2c-20.4-20.4-44.9-36.6-72.3-47.4V807.4z"/>
		</g>
		<g>
			<polygon class="st5" points="691.1,996.4 691.1,983.4 655.4,983.4 655.4,1043.5 691.1,1043.5 691.1,1030.3 671.6,1030.3 
				671.6,1018.9 689.7,1018.9 689.7,1005.8 671.6,1005.8 671.6,996.4 			"/>
			<path class="st5" d="M717.7,1031.1c-2.8,0-5.9-0.4-9.2-1.3c-3.3-0.9-6.6-2.1-9.7-3.7v14.5c2.9,1.4,5.8,2.4,8.5,2.9
				c2.7,0.6,6.1,0.8,10.1,0.8c4.8,0,9-0.8,12.5-2.4c3.6-1.6,6.3-3.9,8.2-6.7c1.9-2.9,2.8-6.2,2.8-9.9c0-4.1-1-7.4-3-10.1
				c-2-2.7-5.6-5.2-10.8-7.5c-5.4-2.5-8.7-4.2-9.9-5.1c-1.2-0.9-1.8-2-1.8-3.2c0-1.1,0.5-2,1.4-2.8c1-0.7,2.5-1.1,4.6-1.1
				c4.1,0,8.9,1.3,14.6,3.9l5-12.5c-6.5-2.9-12.8-4.3-19-4.3c-7,0-12.6,1.5-16.6,4.6c-4,3.1-6,7.4-6,12.9c0,3,0.5,5.5,1.4,7.7
				c0.9,2.2,2.4,4.1,4.4,5.8c2,1.7,4.9,3.4,8.8,5.2c4.3,2,7,3.2,8,3.9c1,0.6,1.7,1.2,2.2,1.9c0.5,0.6,0.7,1.3,0.7,2.2
				c0,1.3-0.6,2.4-1.7,3.2C721.9,1030.7,720.1,1031.1,717.7,1031.1z"/>
			<polygon class="st5" points="776.8,1043.5 776.8,996.7 791.4,996.7 791.4,983.4 745.8,983.4 745.8,996.7 760.5,996.7 
				760.5,1043.5 			"/>
			<path class="st5" d="M851.1,1012.1c0-9.3-2.6-16.4-7.9-21.4c-5.3-4.9-12.7-7.4-22.4-7.4H800v60.1h19.5c10,0,17.8-2.7,23.3-8.1
				C848.3,1029.9,851.1,1022.2,851.1,1012.1z M830.7,1025.9c-2.3,2.9-5.9,4.3-10.9,4.3h-3.6v-33.7h4.7c4.5,0,7.8,1.3,9.9,4
				c2.2,2.7,3.3,6.7,3.3,12.3C834.2,1018.6,833,1023,830.7,1025.9z"/>
			<path class="st5" d="M2165.4,1017.5c2-2.1,3.7-4.2,4.9-6.1c1.2-1.9,2.1-3.9,2.7-5.9c0.6-2,0.9-4.2,0.9-6.5c0-3.1-0.8-6-2.5-8.5
				c-1.7-2.5-4.1-4.5-7.1-5.9c-3-1.4-6.5-2-10.4-2c-3.1,0-5.9,0.3-8.4,0.9c-2.5,0.6-4.8,1.5-6.9,2.7c-2.1,1.2-4.7,3.2-7.8,5.9
				l8.9,10.4c2.4-2.1,4.6-3.7,6.6-4.8c1.9-1.1,3.8-1.6,5.7-1.6c1.8,0,3.3,0.4,4.3,1.4c1,0.9,1.5,2.1,1.5,3.7c0,1.3-0.3,2.5-0.8,3.6
				c-0.5,1.2-1.4,2.5-2.7,4.1c-1.3,1.6-4,4.6-8.2,9l-14.7,14.8v10.7h43.6v-13.4h-22.7v-0.4C2159,1023.7,2163.4,1019.6,2165.4,1017.5
				z"/>
			<path class="st5" d="M2203,1044.3c7.4,0,12.8-2.5,16.4-7.4c3.6-4.9,5.3-12.7,5.3-23.4c0-10.3-1.8-18-5.5-23.2
				c-3.7-5.2-9.1-7.8-16.2-7.8c-7.3,0-12.8,2.5-16.4,7.5c-3.6,5-5.3,12.8-5.3,23.5c0,10.2,1.8,17.9,5.5,23
				C2190.4,1041.7,2195.8,1044.3,2203,1044.3z M2198.7,999.4c0.9-2.6,2.3-3.9,4.3-3.9c2,0,3.4,1.3,4.3,4c0.8,2.7,1.3,7.3,1.3,14
				c0,6.6-0.4,11.3-1.3,13.9c-0.8,2.6-2.3,3.9-4.3,3.9c-2,0-3.4-1.3-4.3-3.8c-0.8-2.5-1.3-7.2-1.3-14
				C2197.4,1006.6,2197.9,1001.9,2198.7,999.4z"/>
			<path class="st5" d="M2249.9,1043.5h16.5v-60.1h-14.6l-20.7,16.8l8.4,10.4l6.8-5.6c1.5-1.3,2.8-2.6,3.8-3.9
				c-0.2,3.2-0.3,6.7-0.3,10.6V1043.5z"/>
			<path class="st5" d="M2282.3,1018.8c-1.7,2.5-2.5,5.4-2.5,8.9c0,5.4,1.9,9.5,5.6,12.4c3.7,2.9,9.2,4.3,16.2,4.3
				c6.9,0,12.3-1.5,16.2-4.4c3.9-2.9,5.8-7.1,5.8-12.4c0-2.9-0.9-5.6-2.7-8.1c-1.8-2.5-5-5-9.4-7.5c3.6-1.8,6.2-3.9,7.9-6.3
				c1.7-2.4,2.5-5.2,2.5-8.4c0-4.7-1.8-8.3-5.3-10.9c-3.5-2.5-8.5-3.8-14.8-3.8c-6.3,0-11.3,1.3-14.9,3.8c-3.6,2.6-5.4,6.1-5.4,10.7
				c0,2.9,0.7,5.6,2.2,8.1c1.5,2.5,3.8,4.7,7,6.9C2286.8,1014.1,2284,1016.3,2282.3,1018.8z M2298.3,995.4c1-0.8,2.1-1.2,3.5-1.2
				c1.3,0,2.5,0.4,3.5,1.2c1,0.8,1.4,1.9,1.4,3.2c0,1.2-0.4,2.2-1.1,3.2c-0.7,0.9-2,2-4,3.1c-3.2-1.8-4.8-3.9-4.8-6.3
				C2296.8,997.3,2297.3,996.2,2298.3,995.4z M2296.3,1022.9c1.1-1.3,2.8-2.6,5.2-3.9c2.7,1.6,4.6,3.1,5.7,4.4
				c1.1,1.3,1.6,2.6,1.6,4c0,3.5-2.4,5.3-7.2,5.3c-2.1,0-3.8-0.5-5-1.5c-1.2-1-1.8-2.4-1.8-4.1
				C2294.7,1025.5,2295.2,1024.2,2296.3,1022.9z"/>
		</g>
		<g>
			<path class="st0" d="M2090.8,994.5c0-330.9-270.1-600.8-601.2-600.8c-331.2,0-601.2,269.9-601.2,600.8
				c0,330.9,270.1,600.8,601.2,600.8C1820.7,1595.3,2090.8,1325.4,2090.8,994.5z"/>
			<path class="st5" d="M1921.4,1426c110.5-110.4,178.9-263,178.9-431.5c0-168.5-68.4-321-178.9-431.5
				c-110.5-110.4-263.2-178.7-431.8-178.7c-168.6,0-321.3,68.3-431.8,178.7C947.2,673.5,878.9,826,878.9,994.5
				c0,168.5,68.4,321,178.9,431.5c110.5,110.4,263.2,178.7,431.8,178.7C1658.2,1604.7,1810.9,1536.4,1921.4,1426z M897.8,994.5
				c0-163.3,66.2-311.1,173.3-418.1c107.1-107,255-173.2,418.5-173.2c163.4,0,311.4,66.2,418.5,173.2
				c107.1,107,173.3,254.8,173.3,418.1c0,163.3-66.2,311.1-173.3,418.1c-107.1,107-255,173.2-418.5,173.2
				c-163.4,0-311.4-66.2-418.5-173.2C964,1305.7,897.8,1157.8,897.8,994.5z"/>
			<path class="st8" d="M1304.1,499.7C1103.6,574.8,960.8,768,960.8,994.5c0,291.8,236.7,528.3,528.7,528.3
				c120.2,0,231.1-40.1,319.9-107.7c-57.7,21.6-120.2,33.5-185.5,33.5c-292,0-528.7-236.5-528.7-528.3
				C1095.2,748.7,1177.2,596.2,1304.1,499.7z"/>
			<path class="st9" d="M1401.1,1402.6c-78.4,0-152.4-19.3-217.3-53.3c82.1,70.7,188.9,113.4,305.7,113.4
				c258.8,0,468.5-209.6,468.5-468.2c0-180.2-101.9-336.6-251.2-414.8c99.7,85.9,162.8,212.9,162.8,354.8
				C1869.7,1193,1659.9,1402.6,1401.1,1402.6z"/>
		</g>
		<g>
			<path class="st4" d="M1890.3,994.5c0-220.6-180-400.4-400.7-400.4c-220.7,0-400.7,179.9-400.7,400.4
				c0,220.5,180,400.4,400.7,400.4C1710.3,1395,1890.3,1215.1,1890.3,994.5z"/>
			<path class="st5" d="M1245.7,688.7c4.1-3.2,4.7-9.1,1.5-13.2c-3.2-4.1-9.2-4.7-13.2-1.5c-48.8,38.9-87.5,87.8-113.9,142.6
				c-26.4,54.8-40.7,115.5-40.7,177.9c0,113.2,45.9,215.6,120.1,289.8c74.2,74.2,176.8,120,290,120c113.3,0,215.8-45.9,290-120
				c74.2-74.2,120.1-176.6,120.1-289.8c0-50.6-9.4-100.4-27.3-146.9c-17.9-46.6-44.3-89.8-78.2-127.4c-3.5-3.9-9.4-4.2-13.3-0.7
				c-3.9,3.5-4.2,9.4-0.7,13.3c32.4,36,57.6,77.2,74.6,121.5c17,44.3,26,91.8,26,140.2c0,108-43.8,205.7-114.6,276.5
				c-70.8,70.8-168.6,114.5-276.7,114.5c-108.1,0-205.9-43.8-276.7-114.5c-70.8-70.8-114.6-168.5-114.6-276.5
				c0-59.6,13.6-117.5,38.8-169.7C1162.2,772.5,1199.1,725.8,1245.7,688.7z"/>
		</g>
		<g>
			<path class="st5" d="M1011.7,995.7c0-15.6-12.7-28.3-28.3-28.3c-15.6,0-28.3,12.7-28.3,28.3c0,15.6,12.7,28.3,28.3,28.3
				C999,1024,1011.7,1011.3,1011.7,995.7z"/>
			<path class="st5" d="M2024,995.7c0-15.6-12.7-28.3-28.3-28.3c-15.6,0-28.3,12.7-28.3,28.3c0,15.6,12.7,28.3,28.3,28.3
				C2011.3,1024,2024,1011.3,2024,995.7z"/>
		</g>
		<g>
			<path class="st6" d="M1840,994.5c0-192.9-157.4-350.1-350.4-350.1c-193,0-350.4,157.3-350.4,350.1
				c0,192.9,157.4,350.1,350.4,350.1C1682.6,1344.7,1840,1187.4,1840,994.5z"/>
			<path class="st5" d="M1229.3,774.3c3.4-4,2.9-9.9-1.1-13.3s-9.9-2.9-13.3,1.1c-27.5,32.5-48.8,69.3-63.3,108.6
				c-14.4,39.4-22,81.2-22,123.7c0,99.3,40.3,189.2,105.4,254.3c65.1,65.1,155.1,105.3,254.5,105.3c99.4,0,189.3-40.2,254.5-105.3
				c65.1-65.1,105.4-155,105.4-254.3c0-32.9-4.5-65.6-13.4-97c-8.8-31.4-21.9-61.7-39.1-89.8c-2.7-4.4-8.5-5.8-12.9-3.1
				c-4.4,2.7-5.8,8.5-3.1,12.9c16.2,26.7,28.7,55.3,37,85.1c8.3,29.8,12.6,60.7,12.6,92c0,94.1-38.2,179.3-99.9,240.9
				c-61.7,61.7-147,99.8-241.1,99.8c-94.2,0-179.4-38.1-241.1-99.8c-61.7-61.7-99.9-146.8-99.9-240.9c0-40.3,7.2-80,20.8-117.3
				C1183.1,840,1203.3,805.1,1229.3,774.3z"/>
		</g>
		<g>
			<g>
				<path class="st5" d="M1270.1,519.2c9.5,8.9,18,21.2,24.4,38c1.9,4.9,7.3,7.3,12.2,5.4c4.9-1.8,7.3-7.3,5.5-12.1
					c-7.5-19.7-17.6-34.2-29.1-45c-11.5-10.9-24.3-17.9-37.2-22.6c-4.9-1.8-10.3,0.7-12.1,5.6c-1.8,4.9,0.7,10.3,5.6,12.1
					C1250.1,504.5,1260.7,510.3,1270.1,519.2z"/>
				<path class="st10" d="M1593.7,664.8c8.4,4.8,19.2,1.9,24.1-6.4l113.5-196.5c4.8-8.4,1.9-19.2-6.4-24l-47.5-27.4
					c-8.4-4.8-19.2-1.9-24.1,6.4l-113.5,196.5c-4.8,8.4-1.9,19.2,6.4,24L1593.7,664.8z"/>
				<path class="st5" d="M1541.6,645.5l49.7,28.7h0.3c5.8,2.6,12.1,3,17.9,1.4c6.7-1.8,12.7-6.1,16.4-12.6l1.3-2.2v0l112.2-194.3
					c3.7-6.4,4.5-13.8,2.7-20.5c-1.8-6.7-6.1-12.7-12.6-16.4l-47.5-27.4h0c-6.5-3.7-13.8-4.5-20.5-2.7c-6.7,1.8-12.7,6.1-16.4,12.6
					v0l-113.5,196.5c-3.7,6.4-4.5,13.8-2.7,20.5C1530.8,635.8,1535.1,641.8,1541.6,645.5z M1548,618l113.5-196.5l0,0
					c1.1-1.9,3-3.3,5-3.8c2.1-0.5,4.3-0.3,6.2,0.8l0,0l47.5,27.4c1.9,1.1,3.3,2.9,3.8,5c0.6,2.1,0.3,4.3-0.8,6.2l-113.5,196.5l0,0
					c-1.1,1.9-3,3.3-5,3.8c-2.1,0.5-4.3,0.3-6.2-0.8l0,0l-47.5-27.4c-1.9-1.1-3.3-2.9-3.8-5C1546.6,622.2,1546.8,619.9,1548,618z"/>
				<path class="st10" d="M1391.3,1301.5h48.7h113.1h48.7c12.4,0,21.5-10.2,22.6-22.6l32.1-361.6c1.1-12.4-10.2-22.6-22.6-22.6
					h-80.9h-113.1h-80.9c-12.4,0-23.7,10.2-22.6,22.6l32.1,361.6C1369.8,1291.3,1378.9,1301.5,1391.3,1301.5z"/>
				<path class="st5" d="M1634.1,885.3h-274.9c-0.9,0-1.9,0-2.8,0.1v0c-7.7,0.7-15,4.1-20.3,9.3c-5.5,5.4-9,12.7-9,20.9
					c0,0.8,0,1.6,0.1,2.5h0l32.1,361.5l0,0c0.8,8.6,4.4,16.4,10.1,22.1l0,0c5.7,5.6,13.2,9.1,21.9,9.1h210.6
					c8.7,0,16.3-3.5,21.9-9.1v0c5.7-5.7,9.3-13.5,10.1-22.1l0,0l32.1-361.5h0c0.1-0.8,0.1-1.7,0.1-2.5c0-8.1-3.5-15.4-9-20.9
					c-5.3-5.2-12.5-8.6-20.3-9.3v0C1635.9,885.4,1635,885.3,1634.1,885.3z M1644,908.2c2,2,3.4,4.6,3.4,7.5l0,0.9l0,0l-32.1,361.5h0
					c-0.4,4.1-2,7.8-4.6,10.4l0,0c-2.2,2.2-5.2,3.6-8.6,3.6h-210.6c-3.4,0-6.4-1.4-8.6-3.6v0c-2.6-2.6-4.3-6.3-4.6-10.4h0
					l-32.1-361.5l0,0l0-0.9c0-2.8,1.3-5.4,3.4-7.5c2.3-2.2,5.4-3.7,8.7-4l0,0c0.4,0,0.8-0.1,1.2-0.1h80.9h194c0.4,0,0.8,0,1.2,0.1
					l0,0C1638.6,904.5,1641.7,906,1644,908.2z"/>
				<path class="st5" d="M1421.1,1302.4c4.3-3,5.3-8.9,2.3-13.1l-47.6-67.7c-3-4.2-8.9-5.3-13.1-2.3c-4.3,3-5.3,8.9-2.3,13.1
					l47.6,67.7C1411,1304.4,1416.9,1305.4,1421.1,1302.4z"/>
				<path class="st5" d="M1498.9,1309.2c4.3-3,5.3-8.9,2.3-13.1L1365,1102.3c-3-4.2-8.9-5.3-13.1-2.3c-4.3,3-5.3,8.9-2.3,13.1
					l136.2,193.8C1488.8,1311.1,1494.6,1312.2,1498.9,1309.2z"/>
				<path class="st5" d="M1491.4,1194.5c4.3-3,5.3-8.9,2.3-13.1l-139.8-199c-3-4.2-8.9-5.3-13.1-2.3c-4.3,3-5.3,8.9-2.3,13.1
					l139.8,199C1481.2,1196.5,1487.1,1197.5,1491.4,1194.5z"/>
				<path class="st5" d="M1561.1,1189.8c4.3-3,5.3-8.9,2.3-13.1l-201.6-286.8c-3-4.2-8.9-5.3-13.1-2.3c-4.3,3-5.3,8.9-2.3,13.1
					l201.6,286.8C1551,1191.8,1556.8,1192.8,1561.1,1189.8z"/>
				<path class="st5" d="M1638.1,1195.4c4.3-3,5.3-8.9,2.3-13.1l-205.9-293c-3-4.2-8.9-5.3-13.1-2.3c-4.3,3-5.3,8.9-2.3,13.1
					l205.9,293C1627.9,1197.4,1633.8,1198.4,1638.1,1195.4z"/>
				<path class="st5" d="M1646,1102.8c4.3-3,5.3-8.9,2.3-13.1l-140.8-200.4c-3-4.2-8.9-5.3-13.1-2.3c-4.3,3-5.3,8.9-2.3,13.1
					l140.8,200.4C1635.9,1104.8,1641.8,1105.8,1646,1102.8z"/>
				<path class="st5" d="M1653.5,1009.6c4.3-3,5.3-8.9,2.3-13.1l-75.3-107.2c-3-4.2-8.9-5.3-13.1-2.3c-4.3,3-5.3,8.9-2.3,13.1
					l75.3,107.2C1643.4,1011.6,1649.3,1012.6,1653.5,1009.6z"/>
				<path class="st5" d="M1610.6,1264.1l27.1-38.6c3-4.2,2-10.1-2.3-13.1c-4.3-3-10.1-2-13.1,2.3l-27.1,38.6c-3,4.3-2,10.1,2.3,13.1
					C1601.7,1269.4,1607.6,1268.3,1610.6,1264.1z"/>
				<path class="st5" d="M1545.5,1252.7l102.5-145.8c3-4.2,2-10.1-2.3-13.1c-4.3-3-10.1-2-13.1,2.3l-102.5,145.8
					c-3,4.2-2,10.1,2.3,13.1C1536.7,1258,1542.5,1257,1545.5,1252.7z"/>
				<path class="st5" d="M1434.4,1306.9l224.1-319c3-4.2,2-10.1-2.3-13.1c-4.3-3-10.1-2-13.1,2.3l-224.1,319c-3,4.2-2,10.1,2.3,13.1
					C1425.6,1312.2,1431.5,1311.1,1434.4,1306.9z"/>
				<path class="st5" d="M1377.3,1284.3l269.6-383.6c3-4.2,2-10.1-2.3-13.1c-4.3-3-10.1-2-13.1,2.3l-269.6,383.6
					c-3,4.2-2,10.1,2.3,13.1C1368.4,1289.6,1374.3,1288.5,1377.3,1284.3z"/>
				<path class="st5" d="M1368.3,1193.2l205.9-293c3-4.2,2-10.1-2.3-13.1c-4.3-3-10.1-2-13.1,2.3l-205.9,293c-3,4.2-2,10.1,2.3,13.1
					C1359.5,1198.4,1365.3,1197.4,1368.3,1193.2z"/>
				<path class="st5" d="M1360.1,1100.9l141.1-200.7c3-4.2,2-10.1-2.3-13.1c-4.3-3-10.1-2-13.1,2.3l-141.1,200.7
					c-3,4.2-2,10.1,2.3,13.1C1351.3,1106.2,1357.1,1105.1,1360.1,1100.9z"/>
				<path class="st10" d="M1343.5,956c102.1,0,204.2,0,306.3,0c11.1,0,18.7-9.2,20.2-20.2l9.6-69c1.5-11-9.1-20.2-20.2-20.2
					c-108.5,0-217,0-325.5,0c-11.1,0-21.8,9.2-20.2,20.2l9.6,69C1324.8,946.8,1332.3,956,1343.5,956z"/>
				<path class="st5" d="M1332.4,856.1c0.4-0.1,0.9-0.1,1.5-0.1c5.2,0,9.4-4.2,9.4-9.4c0-5.2-4.2-9.4-9.4-9.4
					c-1.3,0-2.7,0.1-4.1,0.3c-6.7,0.9-12.9,4.1-17.6,8.6c-5,4.9-8.1,11.4-8.1,18.6c0,1,0.1,2.2,0.3,3.4l9.6,69
					c1.1,7.7,4.4,14.9,9.6,20l0,0c5.2,5.1,11.9,8.3,20,8.3c5.2,0,9.4-4.2,9.4-9.4c0-5.2-4.2-9.4-9.4-9.4c-2.7,0-4.9-1.1-6.6-2.8v0
					c-2.3-2.3-3.8-5.6-4.3-9.3l-9.6-69c0-0.2,0-0.5,0-0.8c0-1.9,1-3.7,2.4-5.2C1327.2,857.7,1329.7,856.4,1332.4,856.1z"/>
				<path class="st5" d="M1660.7,934.5c-0.5,3.7-2,7.1-4.3,9.3l0,0c-1.7,1.7-4,2.8-6.6,2.8h-191c-5.2,0-9.4,4.2-9.4,9.4
					c0,5.2,4.2,9.4,9.4,9.4h191c8,0,14.8-3.2,20-8.3v0c5.2-5.2,8.5-12.3,9.6-20l9.6-69c0.2-1.3,0.3-2.4,0.3-3.4
					c0-7.2-3.2-13.7-8.1-18.6c-4.6-4.6-10.9-7.7-17.6-8.6c-1.5-0.2-2.8-0.3-4.1-0.3h-138.5c-5.2,0-9.4,4.2-9.4,9.4
					c0,5.2,4.2,9.4,9.4,9.4h138.5c0.6,0,1.2,0,1.6,0.1c2.6,0.4,5.1,1.6,6.9,3.4c1.5,1.5,2.4,3.3,2.4,5.2c0,0.4,0,0.7,0,0.8
					L1660.7,934.5z"/>
				<path class="st4" d="M1645.6,880.6c31.1,0,56.6-25.4,56.6-56.5v0c0-31.1-25.5-56.5-56.6-56.5h-298c-31.1,0-56.6,25.4-56.6,56.5
					v0c0,31.1,25.5,56.5,56.6,56.5H1645.6z"/>
				<path class="st5" d="M1645.6,890c18.2,0,34.7-7.4,46.6-19.4c12-12,19.4-28.4,19.4-46.6c0-18.1-7.4-34.6-19.4-46.6
					c-12-12-28.5-19.4-46.6-19.4h-298c-18.2,0-34.7,7.4-46.6,19.4c-12,12-19.4,28.4-19.4,46.6c0,18.1,7.4,34.6,19.4,46.6
					c12,12,28.5,19.4,46.6,19.4H1645.6z M1300.5,824.1c0-13,5.3-24.7,13.9-33.3c8.5-8.5,20.3-13.8,33.3-13.8h298
					c13,0,24.7,5.3,33.3,13.8c8.5,8.5,13.9,20.3,13.9,33.3c0,12.9-5.3,24.7-13.9,33.3c-8.5,8.5-20.3,13.8-33.3,13.8h-298
					c-13,0-24.7-5.3-33.3-13.8C1305.8,848.8,1300.5,837,1300.5,824.1z"/>
				<path class="st11" d="M1540,717.6c0-73.1-59.7-132.7-132.8-132.7c-73.1,0-132.8,59.6-132.8,132.7c0,73.1,59.7,132.7,132.8,132.7
					C1480.4,850.3,1540,790.7,1540,717.6z"/>
				<path class="st11" d="M1736.5,717.6c0-73.1-59.7-132.7-132.8-132.7c-73.1,0-132.8,59.6-132.8,132.7
					c0,73.1,59.7,132.7,132.8,132.7C1676.9,850.3,1736.5,790.7,1736.5,717.6z"/>
				<path class="st11" d="M1638.3,607.3c0-73.1-59.7-132.7-132.8-132.7c-73.1,0-132.8,59.6-132.8,132.7
					c0,73.1,59.7,132.7,132.8,132.7C1578.6,740,1638.3,680.4,1638.3,607.3z"/>
				<path class="st4" d="M1274.4,717.6c0,73.3,59.5,132.7,132.8,132.7c36.1,0,68.8-14.4,92.7-37.7c-14.1,5.1-29.4,7.9-45.3,7.9
					c-73.3,0-132.8-59.4-132.8-132.7c0-37.2,15.4-70.9,40.1-95C1310.9,611.4,1274.4,660.2,1274.4,717.6z"/>
				<path class="st5" d="M1407.2,594.4c7.7,0,15.4,0.7,22.8,2.1c7.5,1.4,14.9,3.5,22,6.3c4.8,1.9,10.3-0.5,12.2-5.4
					c1.9-4.8-0.5-10.3-5.4-12.1c-8.2-3.2-16.7-5.6-25.3-7.2c-8.7-1.6-17.5-2.5-26.2-2.5c-39.3,0-74.8,15.9-100.6,41.6
					c-25.7,25.7-41.7,61.2-41.7,100.5c0,39.2,15.9,74.8,41.7,100.5c25.7,25.7,61.3,41.6,100.6,41.6c20,0,39.6-4.2,57.5-12.1
					c17.9-7.9,34.2-19.5,47.7-34.4c3.5-3.8,3.2-9.8-0.6-13.3c-3.8-3.5-9.8-3.2-13.3,0.6c-11.7,12.8-25.8,22.9-41.4,29.8
					c-15.5,6.9-32.5,10.5-49.9,10.5c-34.1,0-64.9-13.8-87.2-36.1c-22.3-22.3-36.1-53.1-36.1-87.2c0-34,13.8-64.9,36.1-87.2
					C1342.3,608.2,1373.2,594.4,1407.2,594.4z"/>
				<path class="st5" d="M1481.9,698.1c0.8-5.1-2.7-9.9-7.8-10.7c-5.1-0.8-9.9,2.7-10.8,7.8c-0.6,3.9-1.1,7.6-1.4,11.2
					c-0.3,3.8-0.5,7.6-0.5,11.3c0,39.2,15.9,74.8,41.7,100.5c25.7,25.7,61.3,41.6,100.6,41.6c39.3,0,74.8-15.9,100.6-41.6
					c25.7-25.7,41.7-61.2,41.7-100.5c0-32.5-11-62.9-29.9-87.2c-18.9-24.3-45.6-42.5-77.1-50.5c-5-1.3-10.2,1.8-11.5,6.8
					c-1.3,5,1.8,10.2,6.8,11.4c27.3,7,50.5,22.7,66.9,43.8c16.4,21.1,25.9,47.4,25.9,75.6c0,34-13.8,64.9-36.1,87.2
					c-22.3,22.3-53.2,36.1-87.2,36.1c-34.1,0-64.9-13.8-87.2-36.1c-22.3-22.3-36.1-53.1-36.1-87.2c0-3.3,0.1-6.6,0.4-9.8
					C1481,704.4,1481.4,701.1,1481.9,698.1z"/>
				<path class="st5" d="M1617.3,659.3c-2.2,4.7-0.2,10.3,4.6,12.5c4.7,2.2,10.3,0.2,12.5-4.6c4.3-9.3,7.6-19.1,9.9-29.3
					c2.2-10.2,3.4-20.5,3.4-30.7c0-39.2-15.9-74.8-41.7-100.5c-25.7-25.7-61.3-41.6-100.6-41.6c-35.5,0-68.3,13.1-93.4,35
					c-25.1,21.9-42.6,52.6-47.4,87.7c-0.7,5.1,2.9,9.9,8.1,10.6c5.1,0.7,9.9-2.9,10.6-8.1c4.2-30.5,19.4-57.1,41.2-76.1
					c21.8-19,50.2-30.3,81.1-30.3c34.1,0,64.9,13.8,87.2,36.1c22.3,22.3,36.1,53.1,36.1,87.2c0,9.1-1,18-2.9,26.7
					C1624,642.6,1621.1,651.1,1617.3,659.3z"/>
				<path class="st4" d="M1326.1,700.9c3.5-15.9,11.9-29.8,23.4-40.2c11.5-10.4,26.2-17.4,42.4-19.3c5.2-0.6,8.9-5.3,8.3-10.5
					c-0.6-5.2-5.3-8.9-10.5-8.2c-20.1,2.4-38.4,11.1-52.7,24.1c-14.3,13-24.8,30.3-29.2,50.1c-1.1,5.1,2.1,10.1,7.1,11.2
					C1320,709.2,1325,706,1326.1,700.9z"/>
				<path class="st4" d="M1454.5,542.8c5.4-5.6,11.6-10.2,18.4-13.7c6.9-3.6,14.2-6,21.8-7.2c5.1-0.8,8.6-5.6,7.8-10.7
					c-0.8-5.1-5.6-8.6-10.7-7.8c-9.8,1.5-19.1,4.6-27.6,9c-8.6,4.4-16.4,10.3-23.3,17.4c-3.6,3.7-3.5,9.7,0.3,13.3
					C1444.9,546.7,1450.9,546.6,1454.5,542.8z"/>
				<path class="st4" d="M1533.4,674.5c4.9-7.9,11.2-14.9,18.3-20.7c7.1-5.8,15.3-10.3,24.1-13.5c4.9-1.7,7.5-7.1,5.7-12
					c-1.7-4.9-7.1-7.5-12-5.7c-10.8,3.8-20.7,9.5-29.6,16.6c-8.8,7.1-16.4,15.7-22.5,25.4c-2.7,4.4-1.4,10.2,3,13
					C1524.9,680.2,1530.7,678.9,1533.4,674.5z"/>
				<path class="st12" d="M1365.9,593.2c0-23-18.8-41.8-41.9-41.8c-23.1,0-41.9,18.8-41.9,41.8c0,23,18.8,41.8,41.9,41.8
					C1347,635,1365.9,616.2,1365.9,593.2z"/>
				<path class="st5" d="M1360.3,629.4c9.3-9.3,15-22.1,15-36.2c0-14.2-5.7-27-15-36.2c-9.3-9.3-22.1-15-36.3-15
					c-14.2,0-27,5.7-36.3,15c-9.3,9.3-15,22.1-15,36.2c0,14.2,5.7,27,15,36.2c9.3,9.3,22.1,15,36.3,15
					C1338.1,644.4,1351,638.7,1360.3,629.4z M1291.5,593.2c0-9,3.6-17.1,9.5-22.9c5.9-5.9,14-9.5,22.9-9.5c9,0,17.1,3.6,22.9,9.5
					c5.9,5.9,9.5,14,9.5,22.9c0,9-3.6,17.1-9.5,22.9c-5.9,5.9-14,9.5-22.9,9.5c-9,0-17.1-3.6-22.9-9.5
					C1295.2,610.2,1291.5,602.1,1291.5,593.2z"/>
				<path class="st12" d="M1435.2,573.9c0-23-18.8-41.8-41.9-41.8c-23.1,0-41.9,18.8-41.9,41.8s18.8,41.8,41.9,41.8
					C1416.4,615.8,1435.2,597,1435.2,573.9z"/>
				<path class="st5" d="M1429.6,610.2c9.3-9.3,15-22.1,15-36.2c0-14.2-5.7-27-15-36.2c-9.3-9.3-22.1-15-36.3-15
					c-14.2,0-27,5.7-36.3,15c-9.3,9.3-15,22.1-15,36.2c0,14.2,5.7,27,15,36.2c9.3,9.3,22.1,15,36.3,15
					C1407.5,625.2,1420.3,619.5,1429.6,610.2z M1360.8,573.9c0-9,3.6-17.1,9.5-22.9c5.9-5.9,14-9.5,22.9-9.5c9,0,17.1,3.6,22.9,9.5
					c5.9,5.9,9.5,14,9.5,22.9c0,9-3.6,17.1-9.5,22.9c-5.9,5.9-14,9.5-22.9,9.5c-9,0-17.1-3.6-22.9-9.5
					C1364.5,591,1360.8,582.9,1360.8,573.9z"/>
				<path class="st11" d="M1452.3,985.7c14.6,0,26.5-11.9,26.5-26.5V796.7c0-14.6-11.9-26.5-26.5-26.5h0
					c-14.6,0-26.5,11.9-26.5,26.5v162.6C1425.7,973.8,1437.7,985.7,1452.3,985.7L1452.3,985.7z"/>
				<path class="st5" d="M1425.7,839.6c-5.2,0-9.4,4.2-9.4,9.4v110.2c0,9.9,4,18.8,10.6,25.4l0,0c6.5,6.5,15.5,10.5,25.4,10.5
					c9.9,0,18.9-4,25.4-10.5l0,0c6.5-6.5,10.6-15.5,10.6-25.3V829.4c0-5.2-4.2-9.4-9.4-9.4c-5.2,0-9.4,4.2-9.4,9.4v129.8
					c0,4.7-1.9,9-5,12.1c-3.1,3.1-7.4,5-12.1,5c-4.7,0-9-1.9-12.1-5h0c-3.1-3.1-5-7.3-5-12.1V849
					C1435.2,843.8,1431,839.6,1425.7,839.6z"/>
			</g>
			<g>
				<g>
					<path class="st5" d="M1238.9,1283.3c-13.3-49.5-65.9-70.8-113.3-58.1c-51.7,13.9-83,57.7-86.8,110.1l-9.2,126.7
						c-1,13.4,0.3,26.5,3.8,39.5c6.8,25.3,21.7,43.7,41.3,54.5c-10.4,9.4-19,20.3-23.8,33.1c-5.5,14.8-5.5,30.2-1.4,45.3
						c12.1,45.3,58.4,62.9,101.6,51.3c44.7-12,72.7-47.8,76.7-93.8c0-0.2,0-0.4,0-0.6c0.7-11,1.7-22,2.8-32.9
						c21.2-14.5,40-31,54.7-51.7c23.3,7.6,49.5,6.3,72.9,0.1c23.2-6.2,44.8-17.4,62.7-33.2c16.5,6.7,35.4,7,52.9,2.3
						c15.8-4.2,29.9-12.2,41.6-23c13.4,4.2,27.9,4.4,41.8,0.7c14.3-3.8,27.3-11.8,37.8-22.3c15.1,4.4,32.2,3.5,46.9-0.4
						c17.8-4.8,33.6-14,46.4-26.7c17.2,5.1,36,4.7,53.3,0.1c19.2-5.1,35.7-15.2,49.1-29.2c17.5,6.1,37.1,6.1,55.1,1.3
						c27.9-7.5,50.8-22.8,62.9-47.8c3.3-0.5,6.5-1.2,9.6-2.1c46.5-12.5,76.4-54.9,78.8-102c0-0.4,0-0.7,0-1c0-5.4-0.3-10.7-1.7-16
						c-6.1-22.6-28-35.8-50.6-29.7c-9.1,2.4-16.6,7.3-22.2,13.9c-0.1-0.6-0.3-1.3-0.5-1.8c-12.5-46.5-59.1-65.8-103.6-53.8
						c-21.4,5.7-40.5,18-53.8,34.6c-6.2-6.4-14.6-10.2-23.8-11l2.7-39.3c0-0.4,0-0.8,0.1-1.2c0.1-4.3-0.3-8.4-1.4-12.5
						c-6.7-25-30.9-38.1-55.8-31.4c-20.7,5.5-33.6,24.1-35.1,45.1l-5.1,61.9c-9.3,2.8-17.3,7.8-23.3,14.4
						c-9.9-4.7-21.7-5.8-33.4-2.7c-9.9,2.6-18.8,8.1-25.5,15.5c-11-0.7-22.3,0.7-32.4,3.4c-20.8,5.6-38.2,18.5-48.8,36l4-55.9
						c0-0.1,0-0.2,0-0.3c0.4-6.2-0.1-12.6-1.7-18.6c-6.2-23.1-31.4-36.6-54.2-30.5c-23.3,6.2-34.6,24.8-36.3,48l-7.6,101.4
						c-20.4-20.6-51.9-27.5-82.8-19.3c-34.8,9.3-60.2,35.9-68.5,69.8c-2.5-2.8-5.3-5.1-8.5-7
						C1240.5,1323.2,1244.3,1303.3,1238.9,1283.3z M1093.3,1622.7c-1.6-5.9-2.1-11.9,0.1-17.7c1.4-3.7,3.9-7.3,7.1-10.9
						c-4,8.3-5.3,17.7-2.4,28.3c2.4,8.8,7.5,15.6,14.3,19.8C1103.5,1639.4,1096.2,1633.3,1093.3,1622.7z M1197,1526.4
						c-6.1,3.9-9.7,9.8-10.4,17.1c-1.3,14.9-2.9,29.9-3.9,44.8c-1.5,16.3-7.4,30-17.7,39.8c5.5-7.5,9-16.6,10-26.2
						c0-0.1,0-0.1,0-0.2l2.2-23.8c0.8-8.6-3-16.3-10.2-21c-3.8-2.5-8-3.7-12.3-3.7c2.5-5.2,3-11.4,0.9-17.3
						c-3.6-10.4-14-16.6-24.9-14.9c-25.4,4-46.5-5.3-53.5-31.2c-2.2-8.1-3-16.2-2.4-24.5l9.2-126.7c2.4-33.1,20.3-60.9,53.3-69.7
						c22.8-6.1,51.2,1,57.9,26.1c0.8,3.2,2.6,8.7-1.7,9.9c-1,0.3-3.5,0.6-4.5,0.1c-0.2-0.3-0.3-0.8-0.4-1.1
						c-6.2-23.2-27.4-34.2-50.5-28c-28,7.5-45.3,35.5-47.6,63.2l-9.6,118.6c-0.7,8.6-0.4,17.8,1.9,26.2
						c7.2,26.7,31.4,39.7,57.8,32.6c31.4-8.4,49.9-32.6,52.9-64.7c0-0.1,0-0.3,0-0.4c1.2-16.1,1.9-32.2,3.3-48.2
						c0.6-5.1,1.8-21.6,3.5-27.8c0.4,0,0.8-0.1,1.1,0c0,0,0.1,0,0.1,0c0.4,3.9,0.1,9-0.1,12.3l-11,102.8c-1,9.5,3.7,18.2,12.2,22.5
						c3.3,1.7,6.8,2.5,10.2,2.6C1207.8,1519.3,1202.5,1522.9,1197,1526.4z M1166.6,1344.2c-11.8,13.7-12.4,34.8-14.6,54
						c0,0.2,0,0.4-0.1,0.6c-1.5,16.3-2.1,32.6-3.4,48.9c-1.3,13-6.6,21.6-19.5,25c-0.5,0.1-1.4,0.3-2.1,0.4c-0.1-0.4-0.2-0.7-0.3-1
						c-0.9-3.2-0.8-7.6-0.5-10.8l9.6-118.6c0.6-6.9,4.3-17.5,11-21.7C1150.7,1331.4,1157.8,1339.2,1166.6,1344.2z M1878.6,1201.3
						c1.9,7.2,0.7,32.3-1.5,39.3c-0.1,0.4-0.3,0.9-0.5,1.4c1.1-3.2,1.5-6.7,1.1-10.2c0-1.3,0.2-3,0.2-4.4c0.6-9.2,0.5-19.2-1.9-28.1
						c-1.5-5.5-4-10.2-7.4-14.1C1873.1,1189,1876.7,1194.3,1878.6,1201.3z M1858.6,1257c5.8-0.9,10.7-3.9,14.1-8.2
						c-2.6,7.1-1.6,15.1,2.9,21.3c0.8,6.4,4.3,12,9.4,15.6c-6.8,2.4-12.2,8-14.2,15.4c-1,3.6-2.4,6.9-4,9.8c2-4.7,3.2-9.7,3.7-15.1
						c0.9-9.7-4.1-18.5-12.9-22.6c-2.4-1.1-4.6-1.8-5.5-4.3C1851,1264,1853.1,1257.8,1858.6,1257z M1783.8,1308.1
						c0.7-2.4,0.9-4.5,0.8-6.9c-0.1-2.1,0-4.3,0.2-6.4l5.7-72c0-0.6,0.1-1.2,0.2-1.9l-5,66.5c-0.8,7.7-0.2,16.3,1.8,23.8
						c1.6,5.9,4.1,11.1,7.4,15.3c-4.5-2.4-9.4-3.1-14.5-2.1c-0.9,0.2-1.9,0.4-2.7,0.7C1780.2,1319.6,1782.2,1313.8,1783.8,1308.1z
						 M1734.3,1245.6l5.3-1.4c1.3-0.4,2.7-0.8,3.9-1.2l-3.8,48.3c-0.2,2.5-0.3,5.1-0.3,7.6c-2,6.1-5.6,14.4-10.6,19.2L1734.3,1245.6
						z M1680.6,1328.2c0.1-0.5,0.1-1,0.2-1.5l6.2-84.1c0.6-7.5-2.3-14.3-8.1-19.1c-1.2-1-2.4-1.8-3.6-2.5
						c8.5-2.9,14.3-10.4,15.1-19.5l6.5-78c0-0.1,0-0.2,0-0.3c0.1-0.8,0.6-4.2,1.6-4.5c0.1,0,0.1,0,0.2-0.1l-4.6,66.4
						c-0.5,7.5,2.4,14.2,8.2,19c1.1,0.9,2.3,1.8,3.6,2.4c-8.7,2.9-14.7,10.4-15.4,19.7l-7.4,97.5c0,0.5-0.1,0.9-0.1,1.3
						c-0.1,4.6,0.2,9.1,1.4,13.6c2.5,9.4,8,16.7,15.2,21.5c-2-0.7-3.9-1.6-5.8-2.7c-6.2-3.7-13.4-4.2-19.7-1.8
						c2.4-5.3,4.4-10.8,5.8-16.2c0.6-2.3,0.9-4.4,0.8-6.8C1680.5,1331,1680.5,1329.6,1680.6,1328.2z M1597.1,1240.7
						c0.5-1.7,2.8-3,4.4-3.4c0.3-0.1,0.9-0.2,1.5-0.2c0.1,1,0.1,2.3,0.1,3.2l-8,112.8c0,0.5-0.1,1-0.1,1.5c0,5.2,0.3,10.6,1.7,15.6
						c2.1,7.9,6.6,14,12.5,17.9c-2.2-0.5-4.1-1.2-5.4-2.4c-4.1-3.4-8.7-5.2-13.8-5.4c2.3-6.8,3.6-14,4-21.1l2.6-51.7
						c0.4-8.8,0.3-18.2-2-26.8c-2.7-9.9-8.8-18.8-16.9-24.4C1586.3,1255.6,1594.2,1249.6,1597.1,1240.7z M1508.8,1391.7
						c0.9-2.6,1.3-5,1.3-7.8c0-1.3,0-2.7,0.1-4l7-93.6c0.8-10.7,6.6-19.5,15.1-25c-9.4,9.7-13.2,24.1-13.9,38.3l-3.2,69.6
						c-0.4,5.9,0.1,12.2,1.7,18.3c2.9,10.8,9.6,19.1,18.4,23.3c-4.6-0.3-9-1.7-13-4.3c-5.7-3.7-12.5-4.5-18.6-2.7
						C1505.6,1399.8,1507.3,1395.7,1508.8,1391.7z M1424.2,1396.5c0.5-1.6,0.7-3,0.9-4.7l14.8-197.1c0.1-1.5,0.6-5.9,1.6-7.2
						c0.1-0.1,0.2-0.1,0.3-0.2c0.1,0.8,0,1.7,0,2.3l-15,211.8c0,0.1,0,0.1,0,0.2c-0.3,4.3-0.2,8.8,0.9,13c2,7.5,6.3,13.4,11.9,17.3
						c-2.7-0.9-5.2-2.3-7.4-4.1c-4.7-4.1-10.3-5.9-16.5-5.5c-1.2,0.1-2.4,0.3-3.5,0.5C1417.3,1414.9,1421.4,1406,1424.2,1396.5z
						 M1362.7,1338.7c1,3.8,1.3,8.1,1.4,12.1c-0.4,10.2-3.9,19.5-9.9,26.9c4.4-6.3,7.1-13.8,7.6-22.3c0.4-5.2-0.2-10.3-1.5-15.3
						c-2.3-8.5-6.9-15.7-13.1-21C1354.5,1322.7,1360.2,1329.1,1362.7,1338.7z M1273.5,1435.9c0.5-2,0.6-3.8,0.6-5.9
						c-0.1-2.3,0-4.7,0.1-7.1l4.2-59.4c0.5-7.1,2.2-13.7,5.1-19.6c-0.7,2.7-1.1,5.6-1.3,8.4l-1.6,21c-0.6,8.4,3.4,16.2,10.1,20.6
						c-1,0.4-1.9,1-2.8,1.6c-5.8,3.7-9.3,9.2-10.2,16l-0.9,6.7c0,0.1,0,0.3-0.1,0.4c-0.7,6.1-0.2,12,1.4,17.9
						c3.4,12.6,10.8,21.3,20.3,26.9c-3.2-1.2-6.3-2.6-9.1-4.5c-5.5-3.6-11.6-4.6-18-3c-1.7,0.4-3.2,1-4.7,1.7
						C1269.4,1450.6,1271.7,1443.4,1273.5,1435.9z"/>
					<path class="st6" d="M1113.2,1340.9c2.1-25.5,18.4-39.8,30.9-43.2c15.3-4.1,21,5.7,22.7,12c4.2,15.6,18.9,20.6,32.6,16.9
						c13.1-3.5,23.6-15.5,17.7-37.6c-8.7-32.6-44.7-53-85.6-42.1c-31.6,8.5-66.1,35.8-70.1,89.9l-9.2,126.7
						c-0.9,11.9,0.5,22.4,3.1,32c9.9,37,41.7,53.5,78.9,47.7c-42.8,24.1-73.5,45.3-62.8,85.2c7.4,27.5,36.1,45.4,73.8,35.3
						c31.6-8.5,56.5-33.3,60-73.9c0.9-14.6,2.5-30.1,3.8-44.5c25.9-16.5,51.2-37.1,67.6-67.8c18.9,12.4,46.4,15,75.7,7.2
						c23.6-6.3,47.2-19.2,64.9-39.8c12.9,11.2,32,13.9,50.8,8.8c14.5-3.9,29.6-12.6,41.9-28.5c11.6,7.5,26.4,10.2,41.4,6.1
						c15-4,28.6-14.8,37.6-28.5c14.2,11.9,37.5,8.4,47.1,5.9c15.5-4.1,32.8-13.7,45.8-32.2c14.8,8.9,34.6,10.7,53.9,5.6
						c20.1-5.4,36.6-17.7,48.7-35.6c15,10.5,35.5,13,55.4,7.7c24.9-6.7,45.5-20.7,52.7-47.3c6.2,0.1,13.1-0.8,19.9-2.6
						c37.7-10.1,60.2-44.9,62.1-81.3c0-3.8-0.2-7.1-1-10c-3.2-11.8-13.6-16.2-22.9-13.7c-8.6,2.3-16.2,9.8-16.5,22.6
						c-1.7,21.7-12.7,39.3-31.6,44.4c-1.3,0.3-3.2,0.9-4.6,0.9c0.1,0.3-1.3-4.8-4.2-10.5c1.8-2.2,3.4-5.3,4.5-8.7
						c3.3-9.4,5.4-39.8,2-52.5c-8.7-32.6-41.4-47.1-75.9-37.8c-30,8-54,32.3-56.6,63.4l-5.7,72c-0.3,3.1-0.3,6.1-0.2,9
						c-6.6,23.6-19,37.5-33.2,41.3c-11.5,3.1-20.4-2.1-22.7-10.7c-0.6-2.2-0.6-5-0.6-7.4l7.4-97.4l20.8-5.6
						c16.3-4.4,21.8-18.2,19-28.7c-2.2-8.3-9.6-14.2-21.8-10.9l-14.4,3.9l4.7-68c0-2.4-0.2-4.4-0.7-6.3c-3.2-11.8-14-19.2-28.1-15.4
						c-10.5,2.8-17.5,12.6-18.4,24.8l-6.5,78l-13.4,3.6c-17.3,4.6-21.7,17.4-19,27.7c2.4,8.9,9.9,15.1,18.5,12.8l10.5-2.8l-6.2,84.1
						l-0.1-0.3c-0.2,3-0.2,5.9-0.1,8.7c-6.2,22.9-18.1,33.9-28.8,36.7c-5.4,1.5-9.4-0.6-10.8-5.7c-0.7-2.6-0.9-5.9-0.9-9.7l8-113
						c0.2-4.2-0.1-7.9-0.9-11c-3.8-14-17.2-18.3-29.1-15.1c-8.9,2.4-17.1,9-20.1,18.4c-7.8-2.4-21.6-3.8-37.9,0.6
						c-21.1,5.6-41,23.3-43,50.2l-7,93.9c-0.1,1.9-0.2,3.7-0.1,5.5c-6.5,18.3-15.9,28.2-25.7,30.8c-6.4,1.7-10.9-1.2-12.2-6
						c-0.3-1.3-0.3-3.7-0.2-5.8l15-212.1c0.2-4.2-0.1-8.2-1-11.4c-3.3-12.1-16.9-17-26.5-14.5c-12.1,3.3-18.3,12.1-19.6,27.8
						l-14.8,197.1c-9.2,31.1-34.3,49.8-57.7,56.1c-23.3,6.2-41-1-45-15.7c-0.8-2.9-1.2-5.8-0.8-9.4l0.9-6.7
						c10.8,3.3,23.3,4,36.1,0.6c29.1-7.8,49.8-32.8,50.7-63.9c0-6.5-0.7-12.8-2.2-18.2c-8.1-30.3-38.3-47.2-74.4-37.5
						c-28.4,7.6-51.8,31.7-54.4,66.6l-4.2,59.6c-0.2,3.1-0.2,6.2-0.1,9.2c-6.1,26.3-20.4,46-38.3,61.9l11-103.2
						c0.7-9.1,0.6-16.9-1-23c-2.4-8.9-8.3-14.2-20.9-13.9c-3.4-0.1-6.7,0.4-9.3,1.1c-16.3,4.4-15.5,21.3-18.5,47
						c-1.3,14.4-2.3,34.8-3.4,48.8c-2.3,24.6-15.8,39.5-36.2,44.9c-15,4-26.4-2.5-30.1-16.6c-1.4-5.1-1.7-11.5-1.2-18.5
						L1113.2,1340.9z M1808.2,1289.6l5.3-70.9c1-11.6,10.6-20.6,20.5-23.3c9.9-2.7,18.1,2.3,20.1,9.7c1.5,5.7,1.6,13.6,1.2,20.9
						c-0.2,3.1-0.5,5.9-0.1,8.6c-18.1,2.8-29.9,21.3-24.8,40.5c3.2,10.8,10.2,15.1,17.6,18.5c-1.2,12.3-9,20.2-18.9,22.8
						c-12.5,3.3-17.7-3.5-19.8-11.1C1807.7,1299.3,1807.8,1293.1,1808.2,1289.6z M1537.8,1370.2l3.2-69.6c0.8-21.1,9.1-26,14.2-27.4
						c6.1-1.6,14.4,2.6,17.3,13.5c1.3,4.8,1.6,11.2,1.2,19.9l-2.6,51.7c-1.1,22.5-12,30.6-18.7,32.4c-7,1.9-11.7-1.6-13.7-9
						C1537.6,1377.4,1537.6,1373.4,1537.8,1370.2z M1304.6,1353.9c0.9-10.8,7.3-18.7,14.7-20.7c8.9-2.4,16.7,3.4,19.1,12.7
						c0.7,2.6,1.1,5.2,0.8,8c-0.4,11.4-8.9,17.8-18.5,20.4c-6.1,1.6-12.5,2-17.6,0.6L1304.6,1353.9z M1154.6,1575.8l-2.2,23.8
						c-1.3,13-9.6,21.7-18.8,24.2c-7.3,2-12.1-1.6-13.6-7.3C1115.4,1599.6,1135.5,1586.4,1154.6,1575.8z"/>
				</g>
				<g>
					<path class="st5" d="M1111.8,1082.1c-3.6-13.5-17.2-22.2-31-18.5l-81.2,21.7c-0.2,0-0.3,0.1-0.5,0.1
						c-14.8,4.5-25.4,17.8-21.1,33.7c3.7,13.7,17.6,22,31.5,18.3l4.7-1.3l-6.8,93c-0.4,3.5,0,7,0.9,10.4
						c4.1,15.4,19.8,22.5,34.6,18.6c12.6-3.4,21.6-13.8,22.6-26.9l0.7-9.9c9.6,15.3,28.5,23,47,18c7.4-2,14.2-5.9,19.9-11.1
						c8,1.9,16.7,1.3,24.5-0.8c9.3-2.5,17.7-7.2,24.6-13.6c12.8,2.7,26.7,1.2,39.1-2.2c15.1-4,29.3-10.7,40.8-21
						c6,2,12.5,2.7,18.8,2.4c-1.5,6.3-1.5,13.3,0.5,20.9c6.8,25.3,33.8,36,57.9,29.6c25-6.7,40.9-26.8,43.1-52.5c0-0.1,0-0.3,0-0.4
						c0.3-5.1,0.7-10.2,1.1-15.4c27.6-19.4,43.8-43.9,45.8-79.5c0.3-3.1-0.1-6.2-0.9-9.2c-3.7-13.8-17.3-21.2-31-17.6
						c-2.2,0.6-4.2,1.4-6,2.4l0.4-6.1c0-0.1,0-0.1,0-0.2c0.2-3.1-0.1-6.2-0.9-9.2c-4-15-19.7-23.3-34.5-19.3
						c-8.9,2.4-15.5,8.7-18.7,16.7c-6.8-5.3-16.1-7.4-25-5c-5.7,1.5-10.4,4.6-13.9,8.8c-1-0.4-2-0.7-3-0.9l1.2-17.2
						c0-0.3,0-0.5,0-0.8c0-2.6-0.2-5.1-0.9-7.6c-4.1-15.1-18.8-23.2-33.9-19.1c-12.4,3.3-20.3,14.4-21.2,27l-2.5,29.9
						c-8,3.1-14.1,9.1-16.8,16.5c-7.3-7.8-18.5-11.4-29.7-8.4c-12.6,3.4-22.1,13.2-24.6,26.1c-1.3,6.2-2.8,12.4-4.2,18.6
						c-0.1-2.1-0.4-4.2-1-6.2c-4.1-15.4-19.4-23-34.4-19c-5.3,1.4-10.1,4.2-13.9,7.9c-2.1-0.1-4.2,0-6.3,0.2
						C1112.2,1098,1114,1090.3,1111.8,1082.1z M1073.6,1121.2l0.1-1l1-0.3C1074.3,1120.4,1074,1120.8,1073.6,1121.2z M1228.9,1113.1
						c1.8,1.7,3.9,3.1,6.1,4.1l-0.4,5.3c-0.9-0.9-1.9-1.9-2.8-2.8c-0.8-0.8-2.3-2.2-3.8-3.8
						C1228.3,1115,1228.6,1114.1,1228.9,1113.1z"/>
					<path class="st4" d="M1084.8,1078.7l-81.2,21.7c-9.5,2.9-12,9.3-10.6,14.7c1.3,5,6.3,8.9,12.4,7.3l26-6.9l-8.4,115.2
						c-0.2,1.9,0.1,3.6,0.4,4.9c1.9,7,9.1,9.2,15.5,7.5c5.7-1.5,10.6-6.1,11.1-13l9.1-122l27.3-7.3c9.4-2.5,11.9-9.3,10.4-14.6
						C1095.3,1081.1,1090.5,1077.2,1084.8,1078.7z"/>
					<path class="st4" d="M1147.4,1118.9c-2-7.4-9-9.6-15.2-7.9c-4.7,1.3-9,4.7-10.5,9.6c-4.1-1.2-11.3-2-19.8,0.3
						c-11.1,3-21.5,12.2-22.6,26.3l-3.7,49.2c-0.2,3.3-0.1,6.5,0.7,9.5c3.7,13.9,18,22.3,32.7,18.3c7.9-2.1,15-7.8,19.7-15
						c7.4,6.3,19.7,4.4,24.7,3.1c8-2.1,17-7,23.8-16.6c9.5,4.5,23.2,5.3,40,0.7c16.7-4.5,31.4-12.3,41.4-25.1
						c7.9,6.1,19.4,7.5,30.6,4.5c9-2.4,16.7-7.5,22.7-14.8c4.5,3.2,10.2,4.7,16.3,4.3c-19.2,10-37.2,23.8-31.7,44.3
						c4.4,16.2,22.3,22.9,38.7,18.5c16.6-4.4,29.8-17.5,31.6-38.8c0.5-7.7,1.2-15.7,1.8-23.3c21.9-13.9,43-33.6,45.2-71.8
						c0.1-1.5,0-2.9-0.4-4c-1.5-5.7-6.8-7.9-11.8-6.5c-4.5,1.2-8.6,5.4-9.2,12.5c-1.6,18.7-10.1,31.8-21.4,42l5.3-74.4
						c0.1-1.6-0.1-3-0.4-4.2c-1.8-6.9-9.1-9.9-15.3-8.3c-4.7,1.3-8.9,5.4-9.5,12.8l-4.1,61.7c-2.9,10.5-7.9,15.4-12.4,16.6
						c-3,0.8-5.3-0.5-6.2-3.6c-0.3-1.2-0.4-2.8-0.3-4.4l4.5-57.7c0.2-2,0.1-3.8-0.4-5.5c-1.8-6.9-9.1-9.9-15.3-8.3
						c-4.7,1.3-8.9,5.4-9.5,12.8l-4.4,57.5c-3.4,12.6-10,20-17.5,22c-6,1.6-10.7-1.1-11.9-5.6c-0.3-1.2-0.3-2.6-0.3-3.9l3.9-51.1
						l10.9-2.9c8.5-2.3,11.4-9.5,10-15c-1.2-4.3-5-7.4-11.4-5.7l-7.5,2l2.5-35.6c0-1.3-0.1-2.3-0.4-3.3c-1.7-6.2-7.4-10-14.7-8.1
						c-5.5,1.5-9.2,6.6-9.6,13l-3.4,40.9l-7,1.9c-9,2.4-11.4,9.1-9.9,14.5c1.3,4.7,5.2,7.9,9.7,6.7l5.5-1.5l-3.2,43.6
						c-2.1,6.3-5.3,11.6-9.7,16c-0.2-2.3-0.5-4.4-1-6.5c-2.6-9.7-10.3-17.5-17.1-24.1c-4.9-4.8-9.7-9.6-11.8-14.6
						c4.2-3.3,6.4-9.6,5.1-14.6c-1.9-7.2-9.3-12.4-17.6-10.2c-6.4,1.7-11.9,6.6-13.3,14c-3,13.7-6.3,27.7-9.5,41.3
						c-2.3,1.3-4.4,3.4-5.5,6.3c-5.7,6.6-6.9,16.8-5.1,25.2c-3.5,8.3-8.6,12.5-13.2,13.7c-2.8,0.8-4.9-0.3-5.6-3
						c-0.4-1.3-0.5-3.1-0.5-5.1l4.2-59.2C1148,1122.6,1147.9,1120.6,1147.4,1118.9z M1120.8,1158.7l-1.4,27.1
						c-0.6,11.8-6.3,16-9.8,17c-3.7,1-6.2-0.9-7.2-4.7c-0.6-2.2-0.6-4.3-0.5-6l1.7-36.5c0.4-11.1,4.8-13.6,7.5-14.4
						c3.2-0.9,7.5,1.4,9.1,7.1C1120.8,1150.8,1121,1154.2,1120.8,1158.7z M1340.1,1182.3l-1,12.5c-0.7,6.8-5,11.4-10,12.7
						c-3.9,1-6.2-0.9-7-3.9c-0.3-1-0.5-2.4-0.3-3.7C1322.6,1193.4,1330,1188.1,1340.1,1182.3z M1192.5,1175.2
						c9.7-2.6,13.2-12.3,11-20.5c-1-3.8-3.4-7.3-7-9.4l0.7-3.6c6.6,4.7,12.8,11.6,14.9,19.5c2.1,7.9-0.3,15.5-9.1,18.2
						c-5.7,1.5-11.4,0.4-14.4-3.5C1190,1175.9,1191.3,1175.5,1192.5,1175.2z"/>
				</g>
			</g>
		</g>
	</g>
</g>
</svg>
